<?xml version="1.0" encoding="UTF-8"?>
<svg id="Layer_1" data-name="Layer 1" xmlns="http://www.w3.org/2000/svg" xmlns:xlink="http://www.w3.org/1999/xlink" viewBox="220 615 1060 195">
  <defs>
    <style>
      .cls-1 { fill: url(#New_Gradient_Swatch_1-2); }
      .cls-2 { isolation: isolate; }
      .cls-3 { fill: url(#New_Gradient_Swatch_1); }
      .cls-4 { fill: #e8e8e8; }
    </style>
    <linearGradient id="New_Gradient_Swatch_1" data-name="New Gradient Swatch 1" x1="1017.23" y1="711.19" x2="1194.01" y2="711.19" gradientUnits="userSpaceOnUse">
      <stop offset="0" stop-color="#ff6b35"/>
      <stop offset="1" stop-color="#ff9b6b"/>
    </linearGradient>
    <linearGradient id="New_Gradient_Swatch_1-2" data-name="New Gradient Swatch 1" x1="1211.96" x2="1262.25" xlink:href="#New_Gradient_Swatch_1"/>
  </defs>
  <g class="cls-2">
    <g>
      <path class="cls-4" d="M347.64,725.92l43.98,13.29c-2.95,12.33-7.61,22.63-13.96,30.9-6.35,8.27-14.23,14.51-23.65,18.72-9.42,4.21-21.4,6.31-35.94,6.31-17.65,0-32.07-2.56-43.25-7.69-11.19-5.13-20.84-14.15-28.97-27.06-8.12-12.91-12.18-29.45-12.18-49.59,0-26.86,7.14-47.51,21.43-61.93,14.29-14.43,34.5-21.64,60.65-21.64,20.45,0,36.53,4.14,48.24,12.41,11.7,8.27,20.4,20.97,26.09,38.1l-44.31,9.86c-1.55-4.95-3.18-8.57-4.87-10.86-2.81-3.84-6.24-6.79-10.3-8.86-4.06-2.07-8.6-3.1-13.62-3.1-11.37,0-20.09,4.57-26.14,13.72-4.58,6.79-6.87,17.44-6.87,31.97,0,18,2.73,30.33,8.2,37.01,5.46,6.68,13.14,10.01,23.04,10.01s16.85-2.69,21.77-8.09c4.91-5.39,8.47-13.22,10.69-23.48Z"/>
      <path class="cls-4" d="M417.97,630h50.29v162.39h-50.29v-162.39Z"/>
      <path class="cls-4" d="M504.59,630h46.85l61.14,89.84v-89.84h47.3v162.39h-47.3l-60.81-89.16v89.16h-47.19v-162.39Z"/>
      <path class="cls-4" d="M693.12,630h134.47v34.67h-84.18v25.81h78.09v33.12h-78.09v32.01h86.62v36.78h-136.91v-162.39Z"/>
      <path class="cls-4" d="M845.98,630h55.27l28.74,49.96,27.97-49.96h54.72l-50.54,78.65,55.31,83.74h-56.38l-32.07-52.17-32.07,52.17h-56.05l56.01-84.63-50.92-77.76Z"/>
    </g>
    <path class="cls-3" d="M1133.34,765.58h-56.97l-7.91,26.81h-51.23l61.03-162.39h54.73l61.02,162.39h-52.55l-8.12-26.81ZM1122.94,730.46l-17.92-58.38-17.74,58.38h35.66Z"/>
    <path class="cls-1" d="M1211.96,630h50.29v162.39h-50.29v-162.39Z"/>
  </g>
</svg>
